<svg width="40" height="38" viewBox="0 0 40 38" stroke="blue" fill="none" xmlns="http://www.w3.org/2000/svg">
<path d="M40 14.48L25.62 13.24L20 0L14.38 13.26L0 14.48L10.92 23.94L7.64 38L20 30.54L32.36 38L29.1 23.94L40 14.48ZM20 26.8L12.48 31.34L14.48 22.78L7.84 17.02L16.6 16.26L20 8.2L23.42 16.28L32.18 17.04L25.54 22.8L27.54 31.36L20 26.8Z" fill="black"/>
</svg>

<svg width="20" height="19" viewBox="0 0 20 19" fill="none" xmlns="http://www.w3.org/2000/svg">
<path d="M10 15.27L16.18 19L14.54 11.97L20 7.24L12.81 6.63L10 0L7.19 6.63L0 7.24L5.46 11.97L3.82 19L10 15.27Z" fill="black"/>
</svg>

